<svg height="6302" width="720" xmlns="http://www.w3.org/2000/svg">
<rect height="6302" fill="#555" width="720"></rect>
<text fill="#7f7" font-family="Courier New" font-size="12" xml:space="preserve">
<tspan x="10" y="26">53 megabytes installed</tspan>
<tspan x="10" y="42"></tspan>
<tspan x="10" y="58">node_modules</tspan>
<tspan x="10" y="74">├─┬ generator-jade@0.9.2 </tspan>
<tspan x="10" y="90">│ └─┬ yeoman-generator@0.18.10 </tspan>
<tspan x="10" y="106">│   ├── async@0.9.2 </tspan>
<tspan x="10" y="122">│   ├─┬ chalk@1.1.3 </tspan>
<tspan x="10" y="138">│   │ ├── ansi-styles@2.2.1 </tspan>
<tspan x="10" y="154">│   │ ├── escape-string-regexp@1.0.5 </tspan>
<tspan x="10" y="170">│   │ ├─┬ has-ansi@2.0.0 </tspan>
<tspan x="10" y="186">│   │ │ └── ansi-regex@2.1.1 </tspan>
<tspan x="10" y="202">│   │ ├── strip-ansi@3.0.1 </tspan>
<tspan x="10" y="218">│   │ └── supports-color@2.0.0 </tspan>
<tspan x="10" y="234">│   ├─┬ cheerio@0.18.0 </tspan>
<tspan x="10" y="250">│   │ ├─┬ CSSselect@0.4.1 </tspan>
<tspan x="10" y="266">│   │ │ ├── CSSwhat@0.4.7 </tspan>
<tspan x="10" y="282">│   │ │ └── domutils@1.4.3 </tspan>
<tspan x="10" y="298">│   │ ├─┬ dom-serializer@0.0.1 </tspan>
<tspan x="10" y="314">│   │ │ └── domelementtype@1.1.3 </tspan>
<tspan x="10" y="330">│   │ ├── entities@1.1.1 </tspan>
<tspan x="10" y="346">│   │ └─┬ htmlparser2@3.8.3 </tspan>
<tspan x="10" y="362">│   │   ├── domelementtype@1.3.0 </tspan>
<tspan x="10" y="378">│   │   ├── domhandler@2.3.0 </tspan>
<tspan x="10" y="394">│   │   ├── domutils@1.5.1 </tspan>
<tspan x="10" y="410">│   │   ├── entities@1.0.0 </tspan>
<tspan x="10" y="426">│   │   └── readable-stream@1.1.14 </tspan>
<tspan x="10" y="442">│   ├─┬ class-extend@0.1.2 </tspan>
<tspan x="10" y="458">│   │ └── object-assign@2.1.1 </tspan>
<tspan x="10" y="474">│   ├─┬ cli-table@0.3.1 </tspan>
<tspan x="10" y="490">│   │ └── colors@1.0.3 </tspan>
<tspan x="10" y="506">│   ├─┬ cross-spawn@0.2.9 </tspan>
<tspan x="10" y="522">│   │ └── lru-cache@2.7.3 </tspan>
<tspan x="10" y="538">│   ├── dargs@3.0.1 </tspan>
<tspan x="10" y="554">│   ├─┬ dateformat@1.0.12 </tspan>
<tspan x="10" y="570">│   │ ├── get-stdin@4.0.1 </tspan>
<tspan x="10" y="586">│   │ └─┬ meow@3.7.0 </tspan>
<tspan x="10" y="602">│   │   ├─┬ camelcase-keys@2.1.0 </tspan>
<tspan x="10" y="618">│   │   │ └── camelcase@2.1.1 </tspan>
<tspan x="10" y="634">│   │   ├── decamelize@1.2.0 </tspan>
<tspan x="10" y="650">│   │   ├─┬ loud-rejection@1.6.0 </tspan>
<tspan x="10" y="666">│   │   │ ├─┬ currently-unhandled@0.4.1 </tspan>
<tspan x="10" y="682">│   │   │ │ └── array-find-index@1.0.2 </tspan>
<tspan x="10" y="698">│   │   │ └── signal-exit@3.0.2 </tspan>
<tspan x="10" y="714">│   │   ├── map-obj@1.0.1 </tspan>
<tspan x="10" y="730">│   │   ├── minimist@1.2.0 </tspan>
<tspan x="10" y="746">│   │   ├─┬ normalize-package-data@2.3.8 </tspan>
<tspan x="10" y="762">│   │   │ ├── hosted-git-info@2.4.2 </tspan>
<tspan x="10" y="778">│   │   │ ├─┬ is-builtin-module@1.0.0 </tspan>
<tspan x="10" y="794">│   │   │ │ └── builtin-modules@1.1.1 </tspan>
<tspan x="10" y="810">│   │   │ ├── semver@5.3.0 </tspan>
<tspan x="10" y="826">│   │   │ └─┬ validate-npm-package-license@3.0.1 </tspan>
<tspan x="10" y="842">│   │   │   ├─┬ spdx-correct@1.0.2 </tspan>
<tspan x="10" y="858">│   │   │   │ └── spdx-license-ids@1.2.2 </tspan>
<tspan x="10" y="874">│   │   │   └── spdx-expression-parse@1.0.4 </tspan>
<tspan x="10" y="890">│   │   ├── object-assign@4.1.1 </tspan>
<tspan x="10" y="906">│   │   ├─┬ read-pkg-up@1.0.1 </tspan>
<tspan x="10" y="922">│   │   │ ├─┬ find-up@1.1.2 </tspan>
<tspan x="10" y="938">│   │   │ │ └── path-exists@2.1.0 </tspan>
<tspan x="10" y="954">│   │   │ └─┬ read-pkg@1.1.0 </tspan>
<tspan x="10" y="970">│   │   │   ├─┬ load-json-file@1.1.0 </tspan>
<tspan x="10" y="986">│   │   │   │ └─┬ parse-json@2.2.0 </tspan>
<tspan x="10" y="1002">│   │   │   │   └─┬ error-ex@1.3.1 </tspan>
<tspan x="10" y="1018">│   │   │   │     └── is-arrayish@0.2.1 </tspan>
<tspan x="10" y="1034">│   │   │   └── path-type@1.1.0 </tspan>
<tspan x="10" y="1050">│   │   ├─┬ redent@1.0.0 </tspan>
<tspan x="10" y="1066">│   │   │ ├─┬ indent-string@2.1.0 </tspan>
<tspan x="10" y="1082">│   │   │ │ └── repeating@2.0.1 </tspan>
<tspan x="10" y="1098">│   │   │ └── strip-indent@1.0.1 </tspan>
<tspan x="10" y="1114">│   │   └── trim-newlines@1.0.0 </tspan>
<tspan x="10" y="1130">│   ├─┬ debug@2.6.4 </tspan>
<tspan x="10" y="1146">│   │ └── ms@0.7.3 </tspan>
<tspan x="10" y="1162">│   ├── detect-conflict@1.0.1 </tspan>
<tspan x="10" y="1178">│   ├── diff@1.4.0 </tspan>
<tspan x="10" y="1194">│   ├─┬ download@3.3.0 </tspan>
<tspan x="10" y="1210">│   │ ├─┬ concat-stream@1.6.0 </tspan>
<tspan x="10" y="1226">│   │ │ ├─┬ readable-stream@2.2.9 </tspan>
<tspan x="10" y="1242">│   │ │ │ ├── buffer-shims@1.0.0 </tspan>
<tspan x="10" y="1258">│   │ │ │ ├── isarray@1.0.0 </tspan>
<tspan x="10" y="1274">│   │ │ │ ├── process-nextick-args@1.0.7 </tspan>
<tspan x="10" y="1290">│   │ │ │ ├── string_decoder@1.0.0 </tspan>
<tspan x="10" y="1306">│   │ │ │ └── util-deprecate@1.0.2 </tspan>
<tspan x="10" y="1322">│   │ │ └── typedarray@0.0.6 </tspan>
<tspan x="10" y="1338">│   │ ├─┬ decompress-tar@2.0.2 </tspan>
<tspan x="10" y="1354">│   │ │ ├── is-tar@1.0.0 </tspan>
<tspan x="10" y="1370">│   │ │ ├─┬ strip-dirs@0.1.1 </tspan>
<tspan x="10" y="1386">│   │ │ │ ├─┬ chalk@0.5.1 </tspan>
<tspan x="10" y="1402">│   │ │ │ │ ├── ansi-styles@1.1.0 </tspan>
<tspan x="10" y="1418">│   │ │ │ │ ├─┬ has-ansi@0.1.0 </tspan>
<tspan x="10" y="1434">│   │ │ │ │ │ └── ansi-regex@0.2.1 </tspan>
<tspan x="10" y="1450">│   │ │ │ │ ├── strip-ansi@0.3.0 </tspan>
<tspan x="10" y="1466">│   │ │ │ │ └── supports-color@0.2.0 </tspan>
<tspan x="10" y="1482">│   │ │ │ ├── get-stdin@3.0.2 </tspan>
<tspan x="10" y="1498">│   │ │ │ ├─┬ is-absolute@0.1.7 </tspan>
<tspan x="10" y="1514">│   │ │ │ │ └── is-relative@0.1.3 </tspan>
<tspan x="10" y="1530">│   │ │ │ └─┬ is-integer@1.0.6 </tspan>
<tspan x="10" y="1546">│   │ │ │   └── is-finite@1.0.2 </tspan>
<tspan x="10" y="1562">│   │ │ └─┬ tar-stream@0.4.7 </tspan>
<tspan x="10" y="1578">│   │ │   ├─┬ bl@0.9.5 </tspan>
<tspan x="10" y="1594">│   │ │   │ └── readable-stream@1.0.34 </tspan>
<tspan x="10" y="1610">│   │ │   └── end-of-stream@1.4.0 </tspan>
<tspan x="10" y="1626">│   │ ├─┬ decompress-tarbz2@2.0.2 </tspan>
<tspan x="10" y="1642">│   │ │ ├── is-bzip2@1.0.0 </tspan>
<tspan x="10" y="1658">│   │ │ └─┬ seek-bzip@1.0.5 </tspan>
<tspan x="10" y="1674">│   │ │   └─┬ commander@2.8.1 </tspan>
<tspan x="10" y="1690">│   │ │     └── graceful-readlink@1.0.1 </tspan>
<tspan x="10" y="1706">│   │ ├─┬ decompress-targz@2.1.0 </tspan>
<tspan x="10" y="1722">│   │ │ ├── is-gzip@1.0.0 </tspan>
<tspan x="10" y="1738">│   │ │ ├─┬ strip-dirs@1.1.1 </tspan>
<tspan x="10" y="1754">│   │ │ │ ├── is-natural-number@2.1.1 </tspan>
<tspan x="10" y="1770">│   │ │ │ └── sum-up@1.0.3 </tspan>
<tspan x="10" y="1786">│   │ │ └─┬ tar-stream@1.5.2 </tspan>
<tspan x="10" y="1802">│   │ │   ├── bl@1.2.0 </tspan>
<tspan x="10" y="1818">│   │ │   └─┬ readable-stream@2.2.9 </tspan>
<tspan x="10" y="1834">│   │ │     ├── isarray@1.0.0 </tspan>
<tspan x="10" y="1850">│   │ │     └── string_decoder@1.0.0 </tspan>
<tspan x="10" y="1866">│   │ ├─┬ decompress-unzip@2.1.2 </tspan>
<tspan x="10" y="1882">│   │ │ ├── is-zip@1.0.0 </tspan>
<tspan x="10" y="1898">│   │ │ ├── strip-dirs@1.1.1 </tspan>
<tspan x="10" y="1914">│   │ │ └─┬ yauzl@2.7.0 </tspan>
<tspan x="10" y="1930">│   │ │   ├── buffer-crc32@0.2.13 </tspan>
<tspan x="10" y="1946">│   │ │   └─┬ fd-slicer@1.0.1 </tspan>
<tspan x="10" y="1962">│   │ │     └── pend@1.2.0 </tspan>
<tspan x="10" y="1978">│   │ ├─┬ download-status@2.2.1 </tspan>
<tspan x="10" y="1994">│   │ │ ├─┬ chalk@0.5.1 </tspan>
<tspan x="10" y="2010">│   │ │ │ ├── ansi-styles@1.1.0 </tspan>
<tspan x="10" y="2026">│   │ │ │ ├─┬ has-ansi@0.1.0 </tspan>
<tspan x="10" y="2042">│   │ │ │ │ └── ansi-regex@0.2.1 </tspan>
<tspan x="10" y="2058">│   │ │ │ ├── strip-ansi@0.3.0 </tspan>
<tspan x="10" y="2074">│   │ │ │ └── supports-color@0.2.0 </tspan>
<tspan x="10" y="2090">│   │ │ ├─┬ lpad-align@1.1.0 </tspan>
<tspan x="10" y="2106">│   │ │ │ ├── longest@1.0.1 </tspan>
<tspan x="10" y="2122">│   │ │ │ └── lpad@2.0.1 </tspan>
<tspan x="10" y="2138">│   │ │ └── progress@1.1.8 </tspan>
<tspan x="10" y="2154">│   │ ├─┬ each-async@1.1.1 </tspan>
<tspan x="10" y="2170">│   │ │ ├── onetime@1.1.0 </tspan>
<tspan x="10" y="2186">│   │ │ └── set-immediate-shim@1.0.1 </tspan>
<tspan x="10" y="2202">│   │ ├── get-stdin@3.0.2 </tspan>
<tspan x="10" y="2218">│   │ ├── gulp-rename@1.2.2 </tspan>
<tspan x="10" y="2234">│   │ ├─┬ meow@2.1.0 </tspan>
<tspan x="10" y="2250">│   │ │ ├─┬ camelcase-keys@1.0.0 </tspan>
<tspan x="10" y="2266">│   │ │ │ └── camelcase@1.2.1 </tspan>
<tspan x="10" y="2282">│   │ │ └─┬ indent-string@1.2.2 </tspan>
<tspan x="10" y="2298">│   │ │   ├── get-stdin@4.0.1 </tspan>
<tspan x="10" y="2314">│   │ │   └── repeating@1.1.3 </tspan>
<tspan x="10" y="2330">│   │ ├─┬ rc@0.5.5 </tspan>
<tspan x="10" y="2346">│   │ │ ├── deep-extend@0.2.11 </tspan>
<tspan x="10" y="2362">│   │ │ ├── ini@1.3.4 </tspan>
<tspan x="10" y="2378">│   │ │ ├── minimist@0.0.10 </tspan>
<tspan x="10" y="2394">│   │ │ └── strip-json-comments@0.1.3 </tspan>
<tspan x="10" y="2410">│   │ ├─┬ request@2.81.0 </tspan>
<tspan x="10" y="2426">│   │ │ ├── aws-sign2@0.6.0 </tspan>
<tspan x="10" y="2442">│   │ │ ├── aws4@1.6.0 </tspan>
<tspan x="10" y="2458">│   │ │ ├── caseless@0.12.0 </tspan>
<tspan x="10" y="2474">│   │ │ ├─┬ combined-stream@1.0.5 </tspan>
<tspan x="10" y="2490">│   │ │ │ └── delayed-stream@1.0.0 </tspan>
<tspan x="10" y="2506">│   │ │ ├── extend@3.0.0 </tspan>
<tspan x="10" y="2522">│   │ │ ├── forever-agent@0.6.1 </tspan>
<tspan x="10" y="2538">│   │ │ ├─┬ form-data@2.1.4 </tspan>
<tspan x="10" y="2554">│   │ │ │ └── asynckit@0.4.0 </tspan>
<tspan x="10" y="2570">│   │ │ ├─┬ har-validator@4.2.1 </tspan>
<tspan x="10" y="2586">│   │ │ │ ├─┬ ajv@4.11.7 </tspan>
<tspan x="10" y="2602">│   │ │ │ │ ├── co@4.6.0 </tspan>
<tspan x="10" y="2618">│   │ │ │ │ └─┬ json-stable-stringify@1.0.1 </tspan>
<tspan x="10" y="2634">│   │ │ │ │   └── jsonify@0.0.0 </tspan>
<tspan x="10" y="2650">│   │ │ │ └── har-schema@1.0.5 </tspan>
<tspan x="10" y="2666">│   │ │ ├─┬ hawk@3.1.3 </tspan>
<tspan x="10" y="2682">│   │ │ │ ├── boom@2.10.1 </tspan>
<tspan x="10" y="2698">│   │ │ │ ├── cryptiles@2.0.5 </tspan>
<tspan x="10" y="2714">│   │ │ │ ├── hoek@2.16.3 </tspan>
<tspan x="10" y="2730">│   │ │ │ └── sntp@1.0.9 </tspan>
<tspan x="10" y="2746">│   │ │ ├─┬ http-signature@1.1.1 </tspan>
<tspan x="10" y="2762">│   │ │ │ ├── assert-plus@0.2.0 </tspan>
<tspan x="10" y="2778">│   │ │ │ ├─┬ jsprim@1.4.0 </tspan>
<tspan x="10" y="2794">│   │ │ │ │ ├── assert-plus@1.0.0 </tspan>
<tspan x="10" y="2810">│   │ │ │ │ ├── extsprintf@1.0.2 </tspan>
<tspan x="10" y="2826">│   │ │ │ │ ├── json-schema@0.2.3 </tspan>
<tspan x="10" y="2842">│   │ │ │ │ └── verror@1.3.6 </tspan>
<tspan x="10" y="2858">│   │ │ │ └─┬ sshpk@1.13.0 </tspan>
<tspan x="10" y="2874">│   │ │ │   ├── asn1@0.2.3 </tspan>
<tspan x="10" y="2890">│   │ │ │   ├── assert-plus@1.0.0 </tspan>
<tspan x="10" y="2906">│   │ │ │   ├── bcrypt-pbkdf@1.0.1 </tspan>
<tspan x="10" y="2922">│   │ │ │   ├─┬ dashdash@1.14.1 </tspan>
<tspan x="10" y="2938">│   │ │ │   │ └── assert-plus@1.0.0 </tspan>
<tspan x="10" y="2954">│   │ │ │   ├── ecc-jsbn@0.1.1 </tspan>
<tspan x="10" y="2970">│   │ │ │   ├─┬ getpass@0.1.6 </tspan>
<tspan x="10" y="2986">│   │ │ │   │ └── assert-plus@1.0.0 </tspan>
<tspan x="10" y="3002">│   │ │ │   ├── jodid25519@1.0.2 </tspan>
<tspan x="10" y="3018">│   │ │ │   ├── jsbn@0.1.1 </tspan>
<tspan x="10" y="3034">│   │ │ │   └── tweetnacl@0.14.5 </tspan>
<tspan x="10" y="3050">│   │ │ ├── is-typedarray@1.0.0 </tspan>
<tspan x="10" y="3066">│   │ │ ├── isstream@0.1.2 </tspan>
<tspan x="10" y="3082">│   │ │ ├── json-stringify-safe@5.0.1 </tspan>
<tspan x="10" y="3098">│   │ │ ├─┬ mime-types@2.1.15 </tspan>
<tspan x="10" y="3114">│   │ │ │ └── mime-db@1.27.0 </tspan>
<tspan x="10" y="3130">│   │ │ ├── oauth-sign@0.8.2 </tspan>
<tspan x="10" y="3146">│   │ │ ├── performance-now@0.2.0 </tspan>
<tspan x="10" y="3162">│   │ │ ├── qs@6.4.0 </tspan>
<tspan x="10" y="3178">│   │ │ ├── safe-buffer@5.0.1 </tspan>
<tspan x="10" y="3194">│   │ │ ├── stringstream@0.0.5 </tspan>
<tspan x="10" y="3210">│   │ │ ├─┬ tough-cookie@2.3.2 </tspan>
<tspan x="10" y="3226">│   │ │ │ └── punycode@1.4.1 </tspan>
<tspan x="10" y="3242">│   │ │ ├── tunnel-agent@0.6.0 </tspan>
<tspan x="10" y="3258">│   │ │ └── uuid@3.0.1 </tspan>
<tspan x="10" y="3274">│   │ ├─┬ stream-combiner@0.2.2 </tspan>
<tspan x="10" y="3290">│   │ │ └── duplexer@0.1.1 </tspan>
<tspan x="10" y="3306">│   │ ├─┬ url-regex@2.1.3 </tspan>
<tspan x="10" y="3322">│   │ │ └── ip-regex@1.0.3 </tspan>
<tspan x="10" y="3338">│   │ ├─┬ vinyl@0.4.6 </tspan>
<tspan x="10" y="3354">│   │ │ ├── clone@0.2.0 </tspan>
<tspan x="10" y="3370">│   │ │ └── clone-stats@0.0.1 </tspan>
<tspan x="10" y="3386">│   │ ├─┬ vinyl-fs@0.3.14 </tspan>
<tspan x="10" y="3402">│   │ │ ├─┬ defaults@1.0.3 </tspan>
<tspan x="10" y="3418">│   │ │ │ └── clone@1.0.2 </tspan>
<tspan x="10" y="3434">│   │ │ ├─┬ glob-stream@3.1.18 </tspan>
<tspan x="10" y="3450">│   │ │ │ ├─┬ glob2base@0.0.12 </tspan>
<tspan x="10" y="3466">│   │ │ │ │ └── find-index@0.1.1 </tspan>
<tspan x="10" y="3482">│   │ │ │ ├── ordered-read-streams@0.1.0 </tspan>
<tspan x="10" y="3498">│   │ │ │ └── unique-stream@1.0.0 </tspan>
<tspan x="10" y="3514">│   │ │ ├─┬ glob-watcher@0.0.6 </tspan>
<tspan x="10" y="3530">│   │ │ │ └─┬ gaze@0.5.2 </tspan>
<tspan x="10" y="3546">│   │ │ │   └─┬ globule@0.1.0 </tspan>
<tspan x="10" y="3562">│   │ │ │     ├─┬ glob@3.1.21 </tspan>
<tspan x="10" y="3578">│   │ │ │     │ ├── graceful-fs@1.2.3 </tspan>
<tspan x="10" y="3594">│   │ │ │     │ └── inherits@1.0.2 </tspan>
<tspan x="10" y="3610">│   │ │ │     ├── lodash@1.0.2 </tspan>
<tspan x="10" y="3626">│   │ │ │     └─┬ minimatch@0.2.14 </tspan>
<tspan x="10" y="3642">│   │ │ │       └── sigmund@1.0.1 </tspan>
<tspan x="10" y="3658">│   │ │ ├─┬ graceful-fs@3.0.11 </tspan>
<tspan x="10" y="3674">│   │ │ │ └── natives@1.1.0 </tspan>
<tspan x="10" y="3690">│   │ │ └─┬ strip-bom@1.0.0 </tspan>
<tspan x="10" y="3706">│   │ │   ├── first-chunk-stream@1.0.0 </tspan>
<tspan x="10" y="3722">│   │ │   └── is-utf8@0.2.1 </tspan>
<tspan x="10" y="3738">│   │ └─┬ ware@1.3.0 </tspan>
<tspan x="10" y="3754">│   │   └─┬ wrap-fn@0.1.5 </tspan>
<tspan x="10" y="3770">│   │     └── co@3.1.0 </tspan>
<tspan x="10" y="3786">│   ├─┬ file-utils@0.2.2 </tspan>
<tspan x="10" y="3802">│   │ ├── iconv-lite@0.4.15 </tspan>
<tspan x="10" y="3818">│   │ ├── isbinaryfile@2.0.4 </tspan>
<tspan x="10" y="3834">│   │ └─┬ minimatch@2.0.10 </tspan>
<tspan x="10" y="3850">│   │   └─┬ brace-expansion@1.1.7 </tspan>
<tspan x="10" y="3866">│   │     ├── balanced-match@0.4.2 </tspan>
<tspan x="10" y="3882">│   │     └── concat-map@0.0.1 </tspan>
<tspan x="10" y="3898">│   ├─┬ findup-sync@0.2.1 </tspan>
<tspan x="10" y="3914">│   │ └── glob@4.3.5 </tspan>
<tspan x="10" y="3930">│   ├─┬ github-username@1.1.1 </tspan>
<tspan x="10" y="3946">│   │ ├── get-stdin@1.0.0 </tspan>
<tspan x="10" y="3962">│   │ └─┬ got@2.9.2 </tspan>
<tspan x="10" y="3978">│   │   ├─┬ duplexify@3.5.0 </tspan>
<tspan x="10" y="3994">│   │   │ ├─┬ end-of-stream@1.0.0 </tspan>
<tspan x="10" y="4010">│   │   │ │ └── once@1.3.3 </tspan>
<tspan x="10" y="4026">│   │   │ ├─┬ readable-stream@2.2.9 </tspan>
<tspan x="10" y="4042">│   │   │ │ ├── isarray@1.0.0 </tspan>
<tspan x="10" y="4058">│   │   │ │ └── string_decoder@1.0.0 </tspan>
<tspan x="10" y="4074">│   │   │ └── stream-shift@1.0.0 </tspan>
<tspan x="10" y="4090">│   │   ├── infinity-agent@2.0.3 </tspan>
<tspan x="10" y="4106">│   │   ├── is-stream@1.1.0 </tspan>
<tspan x="10" y="4122">│   │   ├── lowercase-keys@1.0.0 </tspan>
<tspan x="10" y="4138">│   │   ├── nested-error-stacks@1.0.2 </tspan>
<tspan x="10" y="4154">│   │   ├── prepend-http@1.0.4 </tspan>
<tspan x="10" y="4170">│   │   ├─┬ read-all-stream@2.2.0 </tspan>
<tspan x="10" y="4186">│   │   │ └─┬ readable-stream@2.2.9 </tspan>
<tspan x="10" y="4202">│   │   │   ├── isarray@1.0.0 </tspan>
<tspan x="10" y="4218">│   │   │   └── string_decoder@1.0.0 </tspan>
<tspan x="10" y="4234">│   │   ├── statuses@1.3.1 </tspan>
<tspan x="10" y="4250">│   │   └── timed-out@2.0.0 </tspan>
<tspan x="10" y="4266">│   ├─┬ glob@4.5.3 </tspan>
<tspan x="10" y="4282">│   │ ├─┬ inflight@1.0.6 </tspan>
<tspan x="10" y="4298">│   │ │ └── wrappy@1.0.2 </tspan>
<tspan x="10" y="4314">│   │ ├── inherits@2.0.3 </tspan>
<tspan x="10" y="4330">│   │ └── once@1.4.0 </tspan>
<tspan x="10" y="4346">│   ├─┬ gruntfile-editor@0.2.0 </tspan>
<tspan x="10" y="4362">│   │ └─┬ ast-query@0.2.5 </tspan>
<tspan x="10" y="4378">│   │   ├─┬ escodegen@1.3.3 </tspan>
<tspan x="10" y="4394">│   │   │ ├── estraverse@1.5.1 </tspan>
<tspan x="10" y="4410">│   │   │ ├── esutils@1.0.0 </tspan>
<tspan x="10" y="4426">│   │   │ └─┬ source-map@0.1.43 </tspan>
<tspan x="10" y="4442">│   │   │   └── amdefine@1.0.1 </tspan>
<tspan x="10" y="4458">│   │   ├── esprima@1.1.1 </tspan>
<tspan x="10" y="4474">│   │   └── traverse@0.6.6 </tspan>
<tspan x="10" y="4490">│   ├─┬ inquirer@0.8.5 </tspan>
<tspan x="10" y="4506">│   │ ├── ansi-regex@1.1.1 </tspan>
<tspan x="10" y="4522">│   │ ├── cli-width@1.1.1 </tspan>
<tspan x="10" y="4538">│   │ ├─┬ figures@1.7.0 </tspan>
<tspan x="10" y="4554">│   │ │ └── object-assign@4.1.1 </tspan>
<tspan x="10" y="4570">│   │ ├── lodash@3.10.1 </tspan>
<tspan x="10" y="4586">│   │ ├─┬ readline2@0.1.1 </tspan>
<tspan x="10" y="4602">│   │ │ ├── mute-stream@0.0.4 </tspan>
<tspan x="10" y="4618">│   │ │ └─┬ strip-ansi@2.0.1 </tspan>
<tspan x="10" y="4634">│   │ │   └── ansi-regex@1.1.1 </tspan>
<tspan x="10" y="4650">│   │ ├── rx@2.5.3 </tspan>
<tspan x="10" y="4666">│   │ └── through@2.3.8 </tspan>
<tspan x="10" y="4682">│   ├─┬ istextorbinary@1.0.2 </tspan>
<tspan x="10" y="4698">│   │ ├── binaryextensions@1.0.1 </tspan>
<tspan x="10" y="4714">│   │ └── textextensions@1.0.2 </tspan>
<tspan x="10" y="4730">│   ├── lodash@2.4.2 </tspan>
<tspan x="10" y="4746">│   ├─┬ mem-fs-editor@1.2.3 </tspan>
<tspan x="10" y="4762">│   │ ├─┬ glob@5.0.15 </tspan>
<tspan x="10" y="4778">│   │ │ └── path-is-absolute@1.0.1 </tspan>
<tspan x="10" y="4794">│   │ └── lodash@3.10.1 </tspan>
<tspan x="10" y="4810">│   ├── mime@1.3.4 </tspan>
<tspan x="10" y="4826">│   ├─┬ mkdirp@0.5.1 </tspan>
<tspan x="10" y="4842">│   │ └── minimist@0.0.8 </tspan>
<tspan x="10" y="4858">│   ├─┬ nopt@3.0.6 </tspan>
<tspan x="10" y="4874">│   │ └── abbrev@1.1.0 </tspan>
<tspan x="10" y="4890">│   ├── pretty-bytes@1.0.4 </tspan>
<tspan x="10" y="4906">│   ├── read-chunk@1.0.1 </tspan>
<tspan x="10" y="4922">│   ├─┬ rimraf@2.6.1 </tspan>
<tspan x="10" y="4938">│   │ └─┬ glob@7.1.1 </tspan>
<tspan x="10" y="4954">│   │   ├── fs.realpath@1.0.0 </tspan>
<tspan x="10" y="4970">│   │   └── minimatch@3.0.3 </tspan>
<tspan x="10" y="4986">│   ├── run-async@0.1.0 </tspan>
<tspan x="10" y="5002">│   ├── shelljs@0.3.0 </tspan>
<tspan x="10" y="5018">│   ├─┬ sinon@1.17.7 </tspan>
<tspan x="10" y="5034">│   │ ├── formatio@1.1.1 </tspan>
<tspan x="10" y="5050">│   │ ├── lolex@1.3.2 </tspan>
<tspan x="10" y="5066">│   │ ├── samsam@1.1.2 </tspan>
<tspan x="10" y="5082">│   │ └─┬ util@0.10.3 </tspan>
<tspan x="10" y="5098">│   │   └── inherits@2.0.1 </tspan>
<tspan x="10" y="5114">│   ├── text-table@0.2.0 </tspan>
<tspan x="10" y="5130">│   ├─┬ through2@0.6.5 </tspan>
<tspan x="10" y="5146">│   │ ├─┬ readable-stream@1.0.34 </tspan>
<tspan x="10" y="5162">│   │ │ ├── core-util-is@1.0.2 </tspan>
<tspan x="10" y="5178">│   │ │ ├── isarray@0.0.1 </tspan>
<tspan x="10" y="5194">│   │ │ └── string_decoder@0.10.31 </tspan>
<tspan x="10" y="5210">│   │ └── xtend@4.0.1 </tspan>
<tspan x="10" y="5226">│   ├── underscore.string@2.4.0 </tspan>
<tspan x="10" y="5242">│   ├── user-home@1.1.1 </tspan>
<tspan x="10" y="5258">│   ├── xdg-basedir@1.0.1 </tspan>
<tspan x="10" y="5274">│   ├─┬ yeoman-assert@1.0.0 </tspan>
<tspan x="10" y="5290">│   │ └─┬ chalk@0.5.1 </tspan>
<tspan x="10" y="5306">│   │   ├── ansi-styles@1.1.0 </tspan>
<tspan x="10" y="5322">│   │   ├─┬ has-ansi@0.1.0 </tspan>
<tspan x="10" y="5338">│   │   │ └── ansi-regex@0.2.1 </tspan>
<tspan x="10" y="5354">│   │   ├── strip-ansi@0.3.0 </tspan>
<tspan x="10" y="5370">│   │   └── supports-color@0.2.0 </tspan>
<tspan x="10" y="5386">│   ├─┬ yeoman-environment@1.6.6 </tspan>
<tspan x="10" y="5402">│   │ ├── diff@2.2.3 </tspan>
<tspan x="10" y="5418">│   │ ├─┬ globby@4.1.0 </tspan>
<tspan x="10" y="5434">│   │ │ ├─┬ array-union@1.0.2 </tspan>
<tspan x="10" y="5450">│   │ │ │ └── array-uniq@1.0.3 </tspan>
<tspan x="10" y="5466">│   │ │ ├── arrify@1.0.1 </tspan>
<tspan x="10" y="5482">│   │ │ ├── glob@6.0.4 </tspan>
<tspan x="10" y="5498">│   │ │ ├── object-assign@4.1.1 </tspan>
<tspan x="10" y="5514">│   │ │ ├── pify@2.3.0 </tspan>
<tspan x="10" y="5530">│   │ │ └─┬ pinkie-promise@2.0.1 </tspan>
<tspan x="10" y="5546">│   │ │   └── pinkie@2.0.4 </tspan>
<tspan x="10" y="5562">│   │ ├─┬ grouped-queue@0.3.3 </tspan>
<tspan x="10" y="5578">│   │ │ └── lodash@4.17.4 </tspan>
<tspan x="10" y="5594">│   │ ├─┬ inquirer@1.2.3 </tspan>
<tspan x="10" y="5610">│   │ │ ├── ansi-escapes@1.4.0 </tspan>
<tspan x="10" y="5626">│   │ │ ├─┬ cli-cursor@1.0.2 </tspan>
<tspan x="10" y="5642">│   │ │ │ └─┬ restore-cursor@1.0.1 </tspan>
<tspan x="10" y="5658">│   │ │ │   └── exit-hook@1.1.1 </tspan>
<tspan x="10" y="5674">│   │ │ ├── cli-width@2.1.0 </tspan>
<tspan x="10" y="5690">│   │ │ ├─┬ external-editor@1.1.1 </tspan>
<tspan x="10" y="5706">│   │ │ │ ├─┬ spawn-sync@1.0.15 </tspan>
<tspan x="10" y="5722">│   │ │ │ │ └── os-shim@0.1.3 </tspan>
<tspan x="10" y="5738">│   │ │ │ └─┬ tmp@0.0.29 </tspan>
<tspan x="10" y="5754">│   │ │ │   └── os-tmpdir@1.0.2 </tspan>
<tspan x="10" y="5770">│   │ │ ├── mute-stream@0.0.6 </tspan>
<tspan x="10" y="5786">│   │ │ ├─┬ run-async@2.3.0 </tspan>
<tspan x="10" y="5802">│   │ │ │ └── is-promise@2.1.0 </tspan>
<tspan x="10" y="5818">│   │ │ ├── rx@4.1.0 </tspan>
<tspan x="10" y="5834">│   │ │ └─┬ string-width@1.0.2 </tspan>
<tspan x="10" y="5850">│   │ │   ├── code-point-at@1.1.0 </tspan>
<tspan x="10" y="5866">│   │ │   └─┬ is-fullwidth-code-point@1.0.0 </tspan>
<tspan x="10" y="5882">│   │ │     └── number-is-nan@1.0.1 </tspan>
<tspan x="10" y="5898">│   │ ├── lodash@4.17.4 </tspan>
<tspan x="10" y="5914">│   │ ├── log-symbols@1.0.2 </tspan>
<tspan x="10" y="5930">│   │ ├─┬ mem-fs@1.1.3 </tspan>
<tspan x="10" y="5946">│   │ │ ├─┬ through2@2.0.3 </tspan>
<tspan x="10" y="5962">│   │ │ │ └─┬ readable-stream@2.2.9 </tspan>
<tspan x="10" y="5978">│   │ │ │   ├── isarray@1.0.0 </tspan>
<tspan x="10" y="5994">│   │ │ │   └── string_decoder@1.0.0 </tspan>
<tspan x="10" y="6010">│   │ │ ├─┬ vinyl@1.2.0 </tspan>
<tspan x="10" y="6026">│   │ │ │ ├── clone@1.0.2 </tspan>
<tspan x="10" y="6042">│   │ │ │ └── replace-ext@0.0.1 </tspan>
<tspan x="10" y="6058">│   │ │ └─┬ vinyl-file@2.0.0 </tspan>
<tspan x="10" y="6074">│   │ │   ├── graceful-fs@4.1.11 </tspan>
<tspan x="10" y="6090">│   │ │   ├── strip-bom@2.0.0 </tspan>
<tspan x="10" y="6106">│   │ │   ├─┬ strip-bom-stream@2.0.0 </tspan>
<tspan x="10" y="6122">│   │ │   │ └─┬ first-chunk-stream@2.0.0 </tspan>
<tspan x="10" y="6138">│   │ │   │   └─┬ readable-stream@2.2.9 </tspan>
<tspan x="10" y="6154">│   │ │   │     ├── isarray@1.0.0 </tspan>
<tspan x="10" y="6170">│   │ │   │     └── string_decoder@1.0.0 </tspan>
<tspan x="10" y="6186">│   │ │   └─┬ vinyl@1.2.0 </tspan>
<tspan x="10" y="6202">│   │ │     └── clone@1.0.2 </tspan>
<tspan x="10" y="6218">│   │ └─┬ untildify@2.1.0 </tspan>
<tspan x="10" y="6234">│   │   └── os-homedir@1.0.2 </tspan>
<tspan x="10" y="6250">│   └── yeoman-welcome@1.0.1 </tspan>
<tspan x="10" y="6266">├── UNMET PEER DEPENDENCY generator-mocha@&gt;=0.1.0</tspan>
<tspan x="10" y="6282">└── UNMET PEER DEPENDENCY yo@&gt;=1.0.0</tspan>
</text>
</svg>
